<svg width="179" height="172" viewBox="137 69 179 172" fill="none" xmlns="http://www.w3.org/2000/svg">
<g id="Image">
<path id="Vector" d="M178.856 164.795H158.481C153.479 164.795 149.425 168.849 149.425 173.851V219.13C149.425 224.131 153.479 228.185 158.481 228.185H178.856C183.857 228.185 187.912 224.131 187.912 219.13V173.851C187.912 168.849 183.857 164.795 178.856 164.795Z" fill="white" fill-opacity="0.24"/>
<path id="Vector_2" d="M236.587 112.725H216.211C211.21 112.725 207.155 116.779 207.155 121.78V219.13C207.155 224.131 211.21 228.186 216.211 228.186H236.587C241.588 228.186 245.642 224.131 245.642 219.13V121.78C245.642 116.779 241.588 112.725 236.587 112.725Z" fill="white" fill-opacity="0.4"/>
<path id="Vector_3" d="M294.317 139.893H273.942C268.94 139.893 264.886 143.947 264.886 148.948V219.131C264.886 224.132 268.94 228.186 273.942 228.186H294.317C299.318 228.186 303.373 224.132 303.373 219.131V148.948C303.373 143.947 299.318 139.893 294.317 139.893Z" fill="white" fill-opacity="0.24"/>
<path id="Vector_4" d="M226.399 103.669C232.651 103.669 237.719 98.6007 237.719 92.349C237.719 86.0973 232.651 81.0293 226.399 81.0293C220.147 81.0293 215.079 86.0973 215.079 92.349C215.079 98.6007 220.147 103.669 226.399 103.669Z" fill="white" fill-opacity="0.5"/>
</g>
</svg>
